<svg xmlns="http://www.w3.org/2000/svg" viewBox="0 0 666.72 666.72"><g id="Слой_2" data-name="Слой 2"><g id="Слой_1-2" data-name="Слой 1"><path d="M267.36,0H399.84a3.21,3.21,0,0,0,2.08.35c16.88.17,33.74.45,50.61,1.07,13.58.5,27.15,1.21,40.7,2.35a407.69,407.69,0,0,1,41.35,5.4,206.69,206.69,0,0,1,40.51,11.52c29.42,12.05,51.73,31.94,66.32,60.3,6.92,13.45,11.44,27.75,14.73,42.46a363.83,363.83,0,0,1,6.77,44.78c1.4,14.65,2.18,29.33,2.81,44,.43,9.91.44,19.83.58,29.74,0,1.73-.28,3.52.42,5.2V419.52c-.66,1.86-.42,3.8-.42,5.69q-.09,31.08-2.42,62.06A433.31,433.31,0,0,1,658.46,532,213,213,0,0,1,647,573.75c-11.15,27.83-29.37,49.62-55.5,64.56-14.56,8.33-30.29,13.58-46.57,17.3a366.86,366.86,0,0,1-48.8,7.3c-16.33,1.47-32.69,2.31-49.08,2.79-10.47.31-20.94.45-31.41.67-.62,0-1.29-.14-1.83.35H253.92a3.21,3.21,0,0,0-2.08-.35c-9-.19-17.91-.26-26.86-.53-15.91-.48-31.8-1.17-47.66-2.43a414,414,0,0,1-45.63-5.88,202.12,202.12,0,0,1-40.88-11.95c-29-12.25-50.82-32.19-65.08-60.3C18.48,571,13.89,555.81,10.61,540.19c-4.78-22.75-6.83-45.83-8.08-69-.61-11.18-1-22.37-1.31-33.56-.37-13-.54-26.05-.79-39.08a5.86,5.86,0,0,0-.43-3V271.2c.54-.6.4-1.35.42-2.06.06-2.24.09-4.47.14-6.71q.43-19.55.87-39.09Q2,200.18,3.79,177.1a422.49,422.49,0,0,1,5.42-43.28A209.31,209.31,0,0,1,20.76,92.58c12.1-29.79,32.18-52.35,60.91-67,14-7.14,28.86-11.68,44.15-15a393.45,393.45,0,0,1,51-7.07c16.11-1.32,32.24-2,48.39-2.45C238.58.74,251.94.59,265.29.35,266,.33,266.74.54,267.36,0ZM269,308.49c-11.84,0-23.68,0-35.52,0-19.18.08-31.16,21-21.41,37.52,4.91,8.33,12.45,12.48,22.08,12.52,23.84.08,47.68,0,71.52,0,3.28,0,2.93-.34,2.93,3q0,35.28,0,70.56a35.18,35.18,0,0,0,.33,5,25,25,0,0,0,49.74-3.46q0-36.36,0-72.72c0-2.34,0-2.34,2.36-2.36h71.27a35.59,35.59,0,0,0,5.26-.37,25,25,0,0,0-3.93-49.75c-24,.15-48,.05-72,.05-3.21,0-3,.17-3-3,0-24.07.06-48.15,0-72.23,0-9.72-4.57-17.09-13-21.71s-17.29-4.32-25.5.95c-7.71,5-11.48,12.31-11.51,21.44-.05,23.92,0,47.84,0,71.76,0,3.15.19,2.8-2.88,2.8Z"/></g></g></svg>