<svg xmlns="http://www.w3.org/2000/svg" viewBox="0 0 666.72 675.36"><g id="Слой_2" data-name="Слой 2"><g id="Слой_1-2" data-name="Слой 1"><path d="M446.88,675.36H220.32c-.7-.57-1.53-.34-2.31-.34q-23.37-.24-46.74-1c-17-.59-33.85-1.64-50.66-3.88a214.21,214.21,0,0,1-34.91-7.3C71.36,658.38,58.06,652,46.43,642.33,31.58,630,21.4,614.51,14.9,596.46c-5.72-15.9-8.57-32.4-10.49-49.1-1.46-12.63-2.3-25.31-2.78-38C1.09,494.89.82,480.43.42,466c0-.78.21-1.62-.42-2.29V286.56A2,2,0,0,0,.42,285c0-2.24.08-4.48.15-6.71.1-3.36.24-6.72.32-10.07,0-1,.41-1.46,1.43-1.42s1.92,0,2.88,0H664c2,0,2,0,2.73,2V481.44c-.66,1.52-.42,3.14-.42,4.7q-.09,26.42-2.43,52.71a295.64,295.64,0,0,1-5.39,36.75c-2.73,12.46-6.55,24.55-12.54,35.87-12.12,22.91-30.56,38.66-54.62,48-14,5.44-28.63,8.45-43.46,10.52-15.3,2.13-30.7,3.19-46.12,3.81q-26.25,1.07-52.53,1.22A4,4,0,0,0,446.88,675.36ZM467,375a33.4,33.4,0,1,0,33.48-33.34A33.5,33.5,0,0,0,467,375Zm-166.64-.14a33.4,33.4,0,1,0,33.58-33.2A33.44,33.44,0,0,0,300.36,374.89Zm0,133.37a33.38,33.38,0,1,0,66.76.15c.12-18.31-14.89-33.18-33.21-33.38A33.43,33.43,0,0,0,300.36,508.26Zm-100,.11A33.36,33.36,0,1,0,167,541.75,33.36,33.36,0,0,0,200.39,508.37Zm266.61,0a33.4,33.4,0,1,0,33.44-33.34A33.22,33.22,0,0,0,467,508.4ZM200.39,374.94a33.35,33.35,0,1,0-33.29,33.54A33.3,33.3,0,0,0,200.39,374.94Z"/><path d="M497.76,0H503a2,2,0,0,0,1.32.48c9.86,1.76,16.36,7.5,19.74,16.84a26.29,26.29,0,0,1,1.27,9q0,24.48,0,49c0,2.4,0,2.41,2.44,2.64,10,.95,19.88,2,29.73,3.74a174.09,174.09,0,0,1,35.31,9.62c24.71,10,43.14,26.74,54.8,50.78,6.12,12.62,9.75,26,12.3,39.73,1.86,10.07,3.11,20.22,4,30.42.39,4.47.48,4.46-4,4.46H5.25c-2.1,0-2.11-.05-1.95-2.15q1.1-14.59,3.52-29A176.34,176.34,0,0,1,16,150.76c9.89-25.4,26.8-44.41,51.44-56.33,14.38-7,29.71-10.7,45.38-13.27,9.08-1.5,18.22-2.44,27.38-3.3,1.88-.18,1.89-.19,1.92-2.16,0-.64,0-1.28,0-1.92,0-16.24,0-32.47,0-48.71a24.66,24.66,0,0,1,21-24.6,1.35,1.35,0,0,0,1-.47h5.76c.83.8,2,.52,2.94.76A24.86,24.86,0,0,1,192,25.05q0,23.64,0,47.28c0,3.34-.43,3.15,3,3.12,13.75-.15,27.51-.37,41.27-.37q99.35,0,198.7.11c12.31,0,24.63.17,37,.24,3.87,0,3.52.72,3.52-3.56,0-15.52,0-31,0-46.56A24.92,24.92,0,0,1,494.55.77C495.62.5,496.82.79,497.76,0Z"/></g></g></svg>