<svg id="Слой_1" data-name="Слой 1" xmlns="http://www.w3.org/2000/svg" viewBox="0 0 1000 1000"><path d="M430.76,301.22c0,52,.62,103.94-.15,155.9-1,67.65-40.22,107.13-107.79,108.1-59.69.86-119.43,1-179.12,0-66.38-1.13-105.35-39.92-105.86-106q-1.22-159.21,0-318.44C38.43,76.4,77.15,37.46,141.66,36.07,202.44,34.75,263.29,35,324.09,36,390,37.07,429.32,76.34,430.55,142,431.55,195.05,430.75,248.14,430.76,301.22Z"/><path d="M569.09,697c0-52-.61-103.94.14-155.9,1-66.29,39.24-105.34,105.4-106.53q91.18-1.65,182.43,0c64.06,1.29,104.1,40.5,104.81,104.16q1.8,160.86,0,321.76C961.06,922.65,921.57,962,859.4,963.6c-63,1.6-126.08,1.75-189.06-.05-62.53-1.78-99.93-41.1-101.05-104C568.34,805.41,569.09,751.21,569.09,697Z"/><path d="M766.59,35.79c30.95,0,61.93-1,92.82.22,62.1,2.48,100.19,41.1,102.66,103.11.74,18.76.7,37.59,0,56.35C959.8,259,921,298.15,856.94,299.41q-91.14,1.8-182.32,0c-66.12-1.19-104-40.23-105.48-106.43-.39-17.67-.48-35.37,0-53,1.86-63.91,40-102.12,104.61-104C704.69,35,735.65,35.78,766.59,35.79Z"/><path d="M235.15,700.11c30.94,0,61.92-1,92.81.23,62.1,2.48,100.19,41.11,102.65,103.12.74,18.76.7,37.59,0,56.35-2.29,63.51-41.12,102.67-105.17,103.93q-91.12,1.78-182.32,0C77,962.56,39.12,923.52,37.68,857.31c-.39-17.67-.48-35.37,0-53,1.86-63.91,40-102.11,104.62-104C173.25,699.35,204.21,700.1,235.15,700.11Z"/></svg>