<svg xmlns="http://www.w3.org/2000/svg" viewBox="0 0 600.15 666.81"><g id="Слой_2" data-name="Слой 2"><g id="Слой_1-2" data-name="Слой 1"><path d="M0,343.68V216c.58-.59.4-1.35.42-2.05.34-13.66.65-27.33,1-41a391.73,391.73,0,0,1,3-41.36,98.93,98.93,0,0,1,4.73-21,30.42,30.42,0,0,1,7.65-12,62.52,62.52,0,0,1,9.55-7.22A166.53,166.53,0,0,1,46.72,80.71c17.72-8,35.94-14.64,54.22-21.17,34.59-12.37,69.41-24.09,104.16-36,17.68-6.05,35.34-12.19,53.4-17C270.25,3.38,282.11.8,294.33.42A2.65,2.65,0,0,0,296.16,0h8.64a4,4,0,0,0,2.54.45,117.26,117.26,0,0,1,18.31,2.23c12.83,2.4,25.31,6.1,37.71,10.09,24,7.72,47.85,16.09,71.73,24.27,29.56,10.11,59.15,20.13,88.37,31.17,13.46,5.09,26.83,10.38,39.71,16.84a97.86,97.86,0,0,1,18.89,11.77,29.84,29.84,0,0,1,9.25,12.91c.71,2,1.39,3.92,2,5.92,2.73,9.83,3.8,19.93,4.65,30,1.19,14,1.7,28.1,1.9,42.18.25,18.31.28,36.63.3,55q.07,46.2,0,92.4c0,7.11,0,14.23-.51,21.34a336.67,336.67,0,0,1-5.76,43.95,302.69,302.69,0,0,1-55.47,123.67c-20.66,27.53-45.18,51.16-72.64,71.79-33.77,25.38-70.64,45.18-109.66,61.16a122.6,122.6,0,0,1-37.84,9,242.16,242.16,0,0,1-33.32.15,119.08,119.08,0,0,1-36-7.57,510.82,510.82,0,0,1-71.15-34.44c-33.1-19.38-63.43-42.33-89.93-70.17C52,516.5,26.29,473,12.28,422.83a315.13,315.13,0,0,1-9.9-52.48Q1.33,360.21.83,350C.73,347.9.85,345.72,0,343.68Zm275.36-77q0,19.67,0,39.34c0,9.44-.15,18.88.06,28.31a24.93,24.93,0,0,0,32.62,23c10.66-3.45,17.41-13,17.42-24.64q0-65.85,0-131.7a28.82,28.82,0,0,0-.34-4.54,25,25,0,0,0-47.55-6.65,27.3,27.3,0,0,0-2.24,11.67Q275.41,234.06,275.36,266.68Zm25,200.17A33.37,33.37,0,1,0,267,433.41,33.38,33.38,0,0,0,300.4,466.85Z"/></g></g></svg>