<svg xmlns="http://www.w3.org/2000/svg" viewBox="0 0 600.48 666.72"><g id="Слой_2" data-name="Слой 2"><g id="Слой_1-2" data-name="Слой 1"><path d="M453.12,666.72H147.36c-.7-.57-1.53-.33-2.31-.35-18.63-.35-37.24-1-55.73-3.54a150.11,150.11,0,0,1-28-6.32c-24.14-8.23-40.81-24.18-49.67-48.16C7.59,597.41,5.43,586,4,574.52a412.17,412.17,0,0,1-2.87-43.29C.82,517.16.3,503.09.42,489a3.16,3.16,0,0,0-.42-2.3v-240c.57-.6.42-1.35.42-2.05C.33,234,.71,223.24.9,212.53c.32-18.79.94-37.57,3.45-56.22a152.94,152.94,0,0,1,6.34-28.51c5-15,13.27-27.77,25.78-37.64C45.85,82.76,56.56,78.08,68,74.93a184.62,184.62,0,0,1,28.75-5.21c6.12-.68,12.25-1.21,18.4-1.51,1.94-.09,2,0,2,2,0,4.55,0,9.11,0,13.67a97.85,97.85,0,0,0,2,19.54,100.29,100.29,0,0,0,98.35,80.15c55.43-.18,110.86-.06,166.28,0a103.4,103.4,0,0,0,22.6-2.51c44-9.85,76.65-49.77,77.52-94.92.1-5.12,0-10.24.05-15.36,0-2.56,0-2.61,2.65-2.45,8.46.49,16.9,1.23,25.3,2.42a150.27,150.27,0,0,1,28.91,6.68c17.92,6.3,32.19,17.16,42,33.61,5.7,9.6,9.11,20,11.44,30.89,3.35,15.53,4.5,31.31,5.3,47.13.5,10,.41,20,.58,30,0,2.53-.32,5.1.41,7.6v280.8c-.45.45-.34,1-.35,1.59,0,2.24-.09,4.47-.09,6.71,0,20.89-.6,41.74-3.46,62.47A148.79,148.79,0,0,1,589.9,607c-5.41,15.43-14.32,28.32-27.62,38-8.77,6.4-18.6,10.56-29,13.43-14.8,4.09-30,5.67-45.23,6.68-10.21.68-20.44,1.05-30.68,1.17C456,666.35,454.48,666,453.12,666.72ZM358.8,308.59H464.86a46.28,46.28,0,0,0,5.27-.28,25,25,0,0,0,21.14-31.77c-2.51-8.78-10.91-18.2-25.09-18.19q-107.25.06-214.52,0a31.7,31.7,0,0,0-5.5.42c-10.54,1.83-18.53,10.05-20.4,20.9-1.73,10,3.48,20.57,12.65,25.68a28,28,0,0,0,14.09,3.21Zm.25,183.18H252.75c-1.2,0-2.4,0-3.6.07a25,25,0,0,0-14.79,44.08c5.13,4.34,11.13,6,17.77,6q106.78,0,213.56,0a34.78,34.78,0,0,0,4.78-.31,25,25,0,0,0,7.26-47.54,27.6,27.6,0,0,0-11.89-2.32Q412.44,491.79,359.05,491.77Zm-.11-116.64h-107c-1,0-2.08,0-3.11.06a25,25,0,0,0-22,33c3.62,10.51,13.07,17,24.71,17H466a36.37,36.37,0,0,0,4.3-.27c18.89-2.35,28.39-24.38,17-39.63-5.12-6.87-12.08-10.22-20.68-10.21Q412.81,375.15,358.94,375.13ZM141.39,308.58c3.52,0,6.24.05,9,0a25.23,25.23,0,0,0,25-28.75c-1.63-10.93-11-20.3-22-21.18a138.74,138.74,0,0,0-22,0c-12.55,1-22.36,11.84-22.46,24.53a25,25,0,0,0,22.08,25.16C134.67,308.74,138.43,308.47,141.39,308.58Zm.93,233.36c3.83-.18,7.82.2,11.82-.36a25,25,0,0,0-3.87-49.82c-5.28,0-10.56,0-15.83,0a32.71,32.71,0,0,0-4.08.22c-12,1.46-21.41,12.18-21.52,24.47-.1,12.53,9,23.33,21.1,25.07C134,542.13,138.08,541.79,142.32,541.94Zm-.22-116.69c4.15-.16,8.24.24,12.3-.38a25,25,0,0,0-4.15-49.76c-5.36.12-10.72,0-16.08,0a25,25,0,0,0-3.5,49.84C134.51,425.45,138.35,425.07,142.1,425.25Z"/><path d="M387.84,0c1.46.79,3.11.65,4.66.92a49.93,49.93,0,0,1,41,43.69,58.76,58.76,0,0,1,.32,6.22c0,10.88.22,21.76-.06,32.63-.54,21.16-10.55,36.41-29.58,45.61a46.19,46.19,0,0,1-20.47,4.34H330.44c-37.75,0-75.49.16-113.24-.07-19.23-.12-33.79-9-43.57-25.5a47.55,47.55,0,0,1-6.41-24.3q-.14-16.79,0-33.58A50,50,0,0,1,207.06,1.18c2-.43,4.13-.33,6.06-1.18Z"/></g></g></svg>