<svg id="Слой_1" data-name="Слой 1" xmlns="http://www.w3.org/2000/svg" viewBox="0 0 1000 1000"><path d="M497.18,434.3q-165.31,0-330.63,0c-86-.1-132.6-51.2-132.92-145.4-.13-35.61-.45-71.23.09-106.84C35,100.8,83.69,47.45,158.45,47.24c183.36-.53,366.72-.18,550.08-.18,43.89,0,87.78-.38,131.67.09,75.87.8,124.8,54.09,126,137.25q.8,56.64,0,113.31c-1.29,81.67-49.83,135.87-123.72,136.38C727.36,434.87,612.27,434.29,497.18,434.3Z"/><path d="M497.46,953q-165.31,0-330.64,0c-87.07-.09-133-51.34-133.2-148.33-.07-35.62-.58-71.25.16-106.84C35.39,621.51,83,566.51,152.32,566.17q346.73-1.68,693.45-.07c70.56.29,118.63,55.24,120.34,133.41.83,37.75.47,75.54.11,113.31-.82,85.59-49.24,139.65-126.43,140C725.68,953.33,611.57,953,497.46,953Zm2.89-259.32c-107.29,0-214.58.8-321.85-.61-24.56-.32-36.35,4.82-32.91,35a295.19,295.19,0,0,1,0,61.41c-2.69,27.83,5,36.57,31.68,36.38,196-1.37,392.08-.53,588.12-1,28.07-.06,64.75,13.39,82-5.33,18.75-20.33,3.66-61.58,6.61-93.46,2.29-24.84-5.12-33.33-28.92-33C716.88,694.44,608.61,693.63,500.35,693.63Z"/></svg>