<svg xmlns="http://www.w3.org/2000/svg" viewBox="0 0 600 666.61"><defs><style>.cls-1,.cls-2{fill:#1c274c;}.cls-2{fill-rule:evenodd;}</style></defs><g id="Слой_2" data-name="Слой 2"><g id="Слой_1-2" data-name="Слой 1"><path class="cls-1" d="M166.67,50a50,50,0,0,1,50-50H383.33a50,50,0,0,1,50,50V83.33a50,50,0,0,1-50,50H216.67a50,50,0,0,1-50-50Z"/><path class="cls-2" d="M116.67,67.89c-41.93,2.35-68.4,9-87.38,28C0,125.19,0,172.33,0,266.61v200C0,560.89,0,608,29.29,637.32S105.72,666.61,200,666.61H400c94.28,0,141.42,0,170.71-29.29S600,560.89,600,466.61v-200c0-94.28,0-141.42-29.29-170.71-19-19-45.45-25.66-87.38-28V83.33a100,100,0,0,1-100,100H216.67a100,100,0,0,1-100-100Zm-8.34,215.44a25,25,0,0,1,25-25H466.67a25,25,0,0,1,0,50H133.33A25,25,0,0,1,108.33,283.33ZM141.67,400a25,25,0,0,1,25-25H433.33a25,25,0,0,1,0,50H166.67A25,25,0,0,1,141.67,400ZM175,516.67a25,25,0,0,1,25-25H400a25,25,0,1,1,0,50H200A25,25,0,0,1,175,516.67Z"/></g></g></svg>